<svg width="23" height="23" viewBox="0 0 23 23" fill="none" xmlns="http://www.w3.org/2000/svg">
<path d="M0 6.498C0 3.35098 2.55117 0.799805 5.6982 0.799805H17.3018C20.4488 0.799805 23 3.35098 23 6.498V14.1647C23 17.3117 20.4488 19.8629 17.3018 19.8629L13.5205 19.8629L8.4957 22.971L8.49549 19.8629L13.5203 16.7548H17.3018C18.7323 16.7548 19.8919 15.5951 19.8919 14.1647V6.498C19.8919 5.06753 18.7323 3.90791 17.3018 3.90791H5.6982C4.26773 3.90791 3.10811 5.06754 3.10811 6.498V14.1647C3.10811 15.5951 4.26773 16.7548 5.69819 16.7548H8.49549V19.8629H5.69819C2.55117 19.8629 0 17.3117 0 14.1647V6.498Z" fill="#0F73FF"/>
</svg>
