<svg
    xmlns="http://www.w3.org/2000/svg"
    width="26"
    height="26"
    viewBox="0 0 26 26"
    fill="none"
    >
    <path
        d="M6.875 13C6.875 12.5168 7.26675 12.125 7.75 12.125H12.125V7.75C12.125 7.26675 12.5168 6.875 13 6.875C13.4832 6.875 13.875 7.26675 13.875 7.75V12.125H18.25C18.7332 12.125 19.125 12.5168 19.125 13C19.125 13.4832 18.7332 13.875 18.25 13.875H13.875V18.25C13.875 18.7332 13.4832 19.125 13 19.125C12.5168 19.125 12.125 18.7332 12.125 18.25V13.875H7.75C7.26675 13.875 6.875 13.4832 6.875 13Z"
        fill="#262626"
    />
    <path
        fillRule="evenodd"
        clipRule="evenodd"
        d="M0.121094 13C0.121094 5.8879 5.88662 0.122375 12.9988 0.122375C20.1109 0.122375 25.8764 5.8879 25.8764 13C25.8764 20.1122 20.1109 25.8777 12.9988 25.8777C5.88662 25.8777 0.121094 20.1122 0.121094 13ZM12.9988 1.87238C6.85312 1.87238 1.87109 6.8544 1.87109 13C1.87109 19.1457 6.85312 24.1277 12.9988 24.1277C19.1444 24.1277 24.1264 19.1457 24.1264 13C24.1264 6.8544 19.1444 1.87238 12.9988 1.87238Z"
        fill="#262626"
    />
</svg>